<?xml version="1.0" encoding="UTF-8"?>
<svg width="268px" height="70px" viewBox="0 0 268 70" version="1.1" xmlns="http://www.w3.org/2000/svg" xmlns:xlink="http://www.w3.org/1999/xlink">
    <!-- Generator: Sketch 63.1 (92452) - https://sketch.com -->
    <title>assets / logo copy</title>
    <desc>Created with Sketch.</desc>
    <g id="Symbols" stroke="none" stroke-width="1" fill="none" fill-rule="evenodd">
        <g id="header-/-nav-/-main" transform="translate(-252.000000, -24.000000)" fill="#45547A">
            <g id="assets-/-logo" transform="translate(252.000000, 24.000000)">
                <path d="M98.9958594,54.2691406 L99.3978125,51.8153125 L91.1651563,51.8153125 L88.97875,65.7141406 L91.9685156,65.7141406 L92.9053125,59.8685938 L97.50125,59.8685938 L97.8578125,57.6154688 L93.24,57.6154688 L93.7759375,54.2691406 L98.9958594,54.2691406 Z M112.162422,59.7351563 C112.541406,57.570625 113.72375,56.6786719 114.705391,56.6786719 C115.352344,56.6786719 115.664609,56.9909375 115.664609,57.6378906 C115.664609,58.8645313 114.259141,59.6011719 112.162422,59.7351563 L112.162422,59.7351563 Z M114.928516,54.5814063 C111.403906,54.5814063 109.039219,57.6378906 109.039219,61.2970313 C109.039219,64.1522656 110.600547,65.8924219 113.746172,65.8924219 C114.816953,65.8924219 115.776172,65.646875 116.467969,65.3116406 L116.825078,62.9917969 C116.066562,63.3494531 115.106797,63.6841406 114.058437,63.6841406 C112.742109,63.6841406 112.006016,63.1033594 111.984141,61.4977344 C115.731875,61.2970313 118.408828,60.2257031 118.408828,57.4814844 C118.408828,55.540625 116.958516,54.5814063 114.928516,54.5814063 L114.928516,54.5814063 Z M102.12125,59.7351563 C102.500781,57.570625 103.682578,56.6786719 104.664219,56.6786719 C105.311172,56.6786719 105.623984,56.9909375 105.623984,57.6378906 C105.623984,58.8645313 104.218516,59.6011719 102.12125,59.7351563 L102.12125,59.7351563 Z M104.887344,54.5814063 C101.362734,54.5814063 98.9980469,57.6378906 98.9980469,61.2970313 C98.9980469,64.1522656 100.559375,65.8924219 103.705547,65.8924219 C104.775781,65.8924219 105.735547,65.646875 106.426797,65.3116406 L106.783906,62.9917969 C106.025391,63.3494531 105.066172,63.6841406 104.017266,63.6841406 C102.701484,63.6841406 101.964844,63.1033594 101.942969,61.4977344 C105.690703,61.2970313 108.368203,60.2257031 108.368203,57.4814844 C108.368203,55.540625 106.917891,54.5814063 104.887344,54.5814063 L104.887344,54.5814063 Z M118.611719,65.7141406 L121.489375,65.7141406 L123.876484,50.5438281 L120.998828,50.5438281 L118.611719,65.7141406 Z M145.953828,63.0142188 C145.953828,62.8807813 145.97625,62.7019531 145.998672,62.5017969 L146.6675,58.44125 C146.734766,58.0398438 146.756641,57.6597656 146.756641,57.3032031 C146.756641,55.7189063 146.110234,54.5814063 144.280391,54.5814063 C142.563203,54.5814063 141.559141,55.4514844 140.844922,56.1875781 L141.737422,50.5438281 L138.859219,50.5438281 L136.472656,65.7141406 L139.350859,65.7141406 L140.555625,58.1957031 C141.02375,57.7270313 141.893281,56.9236719 142.853047,56.9236719 C143.521875,56.9236719 143.790391,57.2807813 143.790391,57.9944531 C143.790391,58.2405469 143.767969,58.5522656 143.700703,58.8869531 L143.008906,63.0809375 C142.964609,63.3264844 142.942187,63.5496094 142.942187,63.7732813 C142.942187,65.0442188 143.633984,65.87 145.195312,65.87 C145.820391,65.87 146.400078,65.7584375 146.802031,65.6025781 L147.114297,63.6392969 C146.913594,63.6611719 146.734766,63.6841406 146.600781,63.6841406 C146.154531,63.6841406 145.953828,63.5277344 145.953828,63.0142188 L145.953828,63.0142188 Z M150.987812,59.7351563 C151.366797,57.570625 152.549141,56.6786719 153.530781,56.6786719 C154.177734,56.6786719 154.49,56.9909375 154.49,57.6378906 C154.49,58.8645313 153.084531,59.6011719 150.987812,59.7351563 L150.987812,59.7351563 Z M153.753906,54.5814063 C150.229297,54.5814063 147.864609,57.6378906 147.864609,61.2970313 C147.864609,64.1522656 149.425938,65.8924219 152.571563,65.8924219 C153.642344,65.8924219 154.601563,65.646875 155.293359,65.3116406 L155.649922,62.9917969 C154.891406,63.3494531 153.932734,63.6841406 152.883828,63.6841406 C151.5675,63.6841406 150.831406,63.1033594 150.809531,61.4977344 C154.557266,61.2970313 157.234219,60.2257031 157.234219,57.4814844 C157.234219,55.540625 155.783906,54.5814063 153.753906,54.5814063 L153.753906,54.5814063 Z M134.029219,51.8825781 L131.642109,51.8825781 L130.682344,54.7596875 L129.098594,54.7596875 L128.764453,56.8569531 L130.348203,56.8569531 L129.500547,62.3229688 C129.455703,62.6352344 129.433828,62.9026563 129.433828,63.1700781 C129.433828,64.9775 130.527031,65.8924219 132.467891,65.8924219 C133.426563,65.8924219 134.096484,65.7365625 134.654297,65.5134375 L134.988438,63.3040625 C134.631875,63.4385938 134.051094,63.5720313 133.359844,63.5720313 C132.690469,63.5720313 132.355781,63.2597656 132.355781,62.6128125 C132.355781,62.479375 132.378203,62.3453906 132.400625,62.1884375 L133.248281,56.8569531 L135.769375,56.8569531 L136.103516,54.7596875 L133.560547,54.7596875 L134.029219,51.8825781 Z M128.809297,28.4894531 C128.191875,28.7825781 127.513203,28.9291406 126.772734,28.9291406 C125.491953,28.9291406 124.554609,28.5583594 123.960703,27.8178906 C123.366797,27.0774219 123.069844,26.0673438 123.069844,24.7865625 C123.069844,23.9996094 123.131641,23.1978906 123.255234,22.3797656 C123.378281,21.5621875 123.563672,20.76375 123.810312,19.985 C124.0575,19.2057031 124.362109,18.4772656 124.724687,17.7980469 C125.086719,17.119375 125.514922,16.5216406 126.009297,16.0042969 C126.502578,15.4875 127.057656,15.0828125 127.675078,14.7896875 C128.291953,14.4965625 128.971172,14.35 129.711641,14.35 C130.976562,14.35 131.910078,14.7202344 132.511641,15.4607031 C133.113203,16.2011719 133.414531,17.2041406 133.414531,18.4690625 C133.414531,19.2560156 133.352187,20.0621094 133.229141,20.8873438 C133.105547,21.7125781 132.924531,22.5153906 132.685547,23.2941406 C132.446016,24.0734375 132.141406,24.8024219 131.771172,25.4805469 C131.400937,26.1597656 130.968906,26.7575 130.475625,27.2742969 C129.98125,27.7910938 129.426172,28.1963281 128.809297,28.4894531 L128.809297,28.4894531 Z M135.716875,28.8596875 C136.773438,27.4711719 137.571875,25.8704688 138.111641,24.0575781 C138.651406,22.2452344 138.921562,20.3514063 138.921562,18.3766406 C138.921562,16.9569531 138.713203,15.7117188 138.297031,14.6392969 C137.880312,13.566875 137.290234,12.6803906 136.52625,11.9776563 C135.762812,11.2760156 134.844609,10.7477344 133.772734,10.3928125 C132.700312,10.0378906 131.501016,9.86015625 130.174297,9.86015625 C128.106562,9.86015625 126.286562,10.2735938 124.713203,11.0988281 C123.139297,11.9240625 121.824062,13.0309375 120.7675,14.4194531 C119.710391,15.8079688 118.911953,17.4086719 118.372188,19.2210156 C117.831875,21.0344531 117.562266,22.9277344 117.562266,24.9025 C117.562266,26.3369531 117.770625,27.5865625 118.187344,28.6513281 C118.603516,29.7160938 119.194141,30.5992969 119.957578,31.3009375 C120.721563,32.003125 121.643047,32.5314063 122.723125,32.8857813 C123.802656,33.24125 124.998125,33.4184375 126.310078,33.4184375 C128.377266,33.4184375 130.197812,33.005 131.771172,32.1803125 C133.345078,31.3550781 134.659766,30.2482031 135.716875,28.8596875 L135.716875,28.8596875 Z M196.856406,4.14476563 L191.394766,4.14476563 L190.075703,10.4157813 L185.910156,10.4157813 L184.961875,14.9280469 L189.150391,14.9280469 L186.790078,26.3139844 C186.68125,26.823125 186.611797,27.2589844 186.581719,27.6215625 C186.550547,27.9841406 186.535234,28.2964063 186.535234,28.5583594 C186.535234,29.3146875 186.655,29.9933594 186.893984,30.5949219 C187.132969,31.1970313 187.503203,31.7061719 188.004687,32.1223438 C188.505625,32.5390625 189.142188,32.8589844 189.913828,33.0832031 C190.685469,33.3063281 191.603125,33.4184375 192.667891,33.4184375 C193.438984,33.4184375 194.260391,33.36375 195.132109,33.2560156 C196.003281,33.1482813 196.809922,32.9940625 197.550391,32.7933594 L198.453281,28.2346094 C197.804688,28.3888281 197.071875,28.5239063 196.254297,28.6398438 C195.436719,28.7552344 194.765703,28.8132031 194.24125,28.8132031 C193.469609,28.8132031 192.929844,28.7016406 192.621406,28.4774219 C192.312422,28.2542969 192.15875,27.8567188 192.15875,27.2857813 C192.15875,27.1009375 192.177891,26.8805469 192.216172,26.62625 C192.255,26.3719531 192.312422,26.075 192.390078,25.7353906 L194.611484,14.9280469 L200.442813,14.9280469 L201.392188,10.4157813 L195.560313,10.4157813 L196.856406,4.14476563 Z M179.599766,10.3348438 C178.959375,10.1888281 178.304219,10.0728906 177.632656,9.98757813 C176.962187,9.90335938 176.294453,9.86015625 175.631094,9.86015625 C174.458594,9.86015625 173.340234,10.0110938 172.276016,10.311875 C171.21125,10.6126563 170.277734,11.0676563 169.475469,11.676875 C168.67375,12.2866406 168.033359,13.0582813 167.555391,13.99125 C167.076875,14.9247656 166.837344,16.0239844 166.837344,17.2889063 C166.837344,18.1376563 166.957109,18.8622656 167.196094,19.4638281 C167.435078,20.0659375 167.759375,20.5865625 168.168437,21.02625 C168.576953,21.4659375 169.039609,21.8323438 169.556953,22.1254688 C170.073203,22.4185938 170.609687,22.6734375 171.164766,22.8889063 C171.766875,23.1202344 172.364609,23.3285938 172.958516,23.5139844 C173.552422,23.6988281 174.080703,23.9039063 174.543906,24.1270313 C175.006563,24.3507031 175.384453,24.609375 175.677578,24.9025 C175.970156,25.195625 176.117266,25.5735156 176.117266,26.0361719 C176.117266,26.9620313 175.716406,27.6833594 174.914141,28.2001563 C174.111328,28.7169531 172.938828,28.9750781 171.396094,28.9750781 C170.331875,28.9750781 169.279141,28.8635156 168.237891,28.6398438 C167.196094,28.4161719 166.166875,28.1039063 165.148047,27.7025 L164.245703,32.0758594 C164.507656,32.2 164.866953,32.3383594 165.321953,32.4925781 C165.776953,32.6473438 166.308516,32.7933594 166.918828,32.9322656 C167.528047,33.0711719 168.210547,33.1865625 168.966875,33.2795313 C169.722656,33.3719531 170.524375,33.4184375 171.373125,33.4184375 C172.885234,33.4184375 174.258437,33.2521875 175.492187,32.9207813 C176.726484,32.589375 177.79125,32.0917188 178.685937,31.4283594 C179.580625,30.765 180.271328,29.946875 180.756953,28.9750781 C181.243125,28.0032813 181.485937,26.8772656 181.485937,25.5964844 C181.485937,24.5940625 181.320234,23.760625 180.988281,23.0972656 C180.656875,22.4344531 180.228672,21.875 179.704219,21.4194531 C179.179766,20.965 178.592969,20.5980469 177.945469,20.3202344 C177.297422,20.0429688 176.657031,19.788125 176.024844,19.5567969 C175.531016,19.3714063 175.056875,19.1942188 174.601328,19.0246875 C174.145781,18.8551563 173.745469,18.6621094 173.398203,18.4460938 C173.051484,18.2300781 172.773672,17.9796094 172.565312,17.6941406 C172.356953,17.4086719 172.253047,17.0575781 172.253047,16.6408594 C172.253047,15.946875 172.541797,15.3835938 173.120391,14.9515625 C173.698984,14.5195313 174.520391,14.3035156 175.584609,14.3035156 C176.572266,14.3035156 177.625,14.4271094 178.743906,14.67375 C179.862266,14.9209375 181.000312,15.2835156 182.156953,15.7614844 L183.036328,11.4805469 C182.557812,11.2486719 182.02625,11.0370313 181.439453,10.8439844 C180.853203,10.6514844 180.240156,10.4819531 179.599766,10.3348438 L179.599766,10.3348438 Z M70.5725781,10.3348438 C69.9321875,10.1888281 69.2764844,10.0728906 68.6054688,9.98757813 C67.9344531,9.90335938 67.2667188,9.86015625 66.6039063,9.86015625 C65.4314063,9.86015625 64.3130469,10.0110938 63.2482813,10.311875 C62.1840625,10.6126563 61.25,11.0676563 60.4482813,11.676875 C59.6460156,12.2866406 59.005625,13.0582813 58.5276563,13.99125 C58.0491406,14.9247656 57.8101563,16.0239844 57.8101563,17.2889063 C57.8101563,18.1376563 57.929375,18.8622656 58.1689063,19.4638281 C58.4078906,20.0659375 58.7321875,20.5865625 59.1407031,21.02625 C59.5492188,21.4659375 60.011875,21.8323438 60.5292188,22.1254688 C61.0460156,22.4185938 61.5819531,22.6734375 62.1375781,22.8889063 C62.7391406,23.1202344 63.336875,23.3285938 63.9307813,23.5139844 C64.5246875,23.6988281 65.0535156,23.9039063 65.5161719,24.1270313 C65.9788281,24.3507031 66.3567188,24.609375 66.6503906,24.9025 C66.9429688,25.195625 67.0900781,25.5735156 67.0900781,26.0361719 C67.0900781,26.9620313 66.6886719,27.6833594 65.8864063,28.2001563 C65.0841406,28.7169531 63.9116406,28.9750781 62.3689063,28.9750781 C61.3046875,28.9750781 60.2514063,28.8635156 59.2101563,28.6398438 C58.1689063,28.4161719 57.1391406,28.1039063 56.1208594,27.7025 L55.2185156,32.0758594 C55.4804688,32.2 55.8392188,32.3383594 56.2942188,32.4925781 C56.7492188,32.6473438 57.2813281,32.7933594 57.8910938,32.9322656 C58.5003125,33.0711719 59.1833594,33.1865625 59.9391406,33.2795313 C60.6949219,33.3719531 61.4971875,33.4184375 62.3459375,33.4184375 C63.8575,33.4184375 65.2307031,33.2521875 66.465,32.9207813 C67.69875,32.589375 68.7635156,32.0917188 69.6582031,31.4283594 C70.5528906,30.765 71.2435938,29.946875 71.7297656,28.9750781 C72.2153906,28.0032813 72.45875,26.8772656 72.45875,25.5964844 C72.45875,24.5940625 72.2925,23.760625 71.9610938,23.0972656 C71.6291406,22.4344531 71.2009375,21.875 70.6764844,21.4194531 C70.1520313,20.965 69.5657813,20.5980469 68.9177344,20.3202344 C68.2696875,20.0429688 67.6298438,19.788125 66.9971094,19.5567969 C66.5032813,19.3714063 66.0291406,19.1942188 65.5741406,19.0246875 C65.1185938,18.8551563 64.7177344,18.6621094 64.3710156,18.4460938 C64.02375,18.2300781 63.7459375,17.9796094 63.5375781,17.6941406 C63.3292188,17.4086719 63.2253125,17.0575781 63.2253125,16.6408594 C63.2253125,15.946875 63.5146094,15.3835938 64.0932031,14.9515625 C64.67125,14.5195313 65.4932031,14.3035156 66.5574219,14.3035156 C67.5445313,14.3035156 68.5978125,14.4271094 69.7161719,14.67375 C70.8345313,14.9209375 71.9725781,15.2835156 73.1297656,15.7614844 L74.0091406,11.4805469 C73.530625,11.2486719 72.9985156,11.0370313 72.4122656,10.8439844 C71.8260156,10.6514844 71.2124219,10.4819531 70.5725781,10.3348438 L70.5725781,10.3348438 Z M35.0754688,1.876875 L23.9279688,23.988125 L23.7660937,23.988125 C23.7967188,21.1963281 23.2104688,1.876875 23.2104688,1.876875 L17.0160156,1.876875 L8.4,23.988125 L8.26109375,23.988125 L5.78539063,1.876875 L0,1.876875 L4.25796875,32.8392969 L10.0198438,32.8392969 L18.6517188,11.4083594 L19.2073438,32.8392969 L25.0621875,32.8392969 L41.1682031,1.876875 L35.0754688,1.876875 Z M255.647109,10.1357813 C255.878984,9.04039063 256.214219,8.13421875 256.654453,7.41671875 C257.093594,6.69921875 257.606562,6.12117188 258.192813,5.6809375 C258.778516,5.24179688 259.431484,4.93335938 260.147891,4.755625 C260.865937,4.5784375 261.625,4.48929688 262.427812,4.48929688 C263.075859,4.48929688 263.7775,4.54726563 264.533828,4.66320313 C265.289609,4.77859375 266.022422,4.92898438 266.731719,5.114375 L267.596875,0.881015625 C266.97125,0.668828125 265.940938,0.37734375 264.67,0.18375 C263.781875,0.065078125 262.874062,7.77156117e-15 261.941641,7.77156117e-15 C261.344453,7.77156117e-15 260.763672,0.03828125 260.194375,0.101171875 C259.010938,0.25265625 257.795781,0.560546875 256.621094,1.11125 C253.057656,2.78140625 251.473906,5.82640625 250.750391,7.99367188 C250.593437,8.51484375 250.447422,9.07484375 250.307422,9.69609375 L250.148281,10.4157813 L246.935391,10.4157813 L245.987109,14.9280469 L249.222969,14.9280469 L245.482344,32.8392969 C245.282187,33.8422656 245.042656,34.7063281 244.764844,35.4314844 C244.487578,36.1566406 244.136484,36.7576563 243.712656,37.2361719 C243.287734,37.7146875 242.775313,38.0696094 242.173203,38.3009375 C241.571094,38.5328125 240.839375,38.6482031 239.975313,38.6482031 C239.580469,38.6482031 239.144063,38.6055469 238.677031,38.5339063 L237.764297,42.9154688 C237.788359,42.9198438 237.809687,42.9247656 237.83375,42.9296875 C238.597734,43.0680469 239.396172,43.1375 240.229062,43.1375 C242.003672,43.1375 243.622969,42.8558594 245.089141,42.293125 C246.554766,41.7292969 247.773203,40.7536719 248.745547,39.3657031 C249.177031,38.7635938 249.547266,38.0542969 249.85625,37.2361719 C250.164141,36.4185937 250.434844,35.4385938 250.666172,34.2972656 L254.684062,14.9280469 L260.960547,14.9280469 L257.211719,32.8392969 L262.672813,32.8392969 L267.3475,10.4157813 L255.609375,10.4157813 L255.647109,10.1357813 Z M97.3147656,30.5254688 C98.4254687,31.513125 99.7560156,32.2426563 101.306953,32.7124219 C102.857344,33.1827344 104.565781,33.4184375 106.432266,33.4184375 C107.589453,33.4184375 108.885547,33.333125 110.320547,33.1635938 C111.755,32.9940625 113.097031,32.6932813 114.346641,32.26125 L115.364922,27.2628125 C114.053516,27.7107031 112.745937,28.0535938 111.442734,28.2925781 C110.138437,28.5315625 108.869687,28.6436719 107.635937,28.6278125 C106.509375,28.6278125 105.448984,28.5091406 104.453672,28.2696094 C103.458906,28.030625 102.591016,27.6139063 101.850547,27.0194531 C101.110078,26.4260937 100.527656,25.6194531 100.103281,24.6011719 C99.6789062,23.5834375 99.4667187,22.2955469 99.4667187,20.7369531 C99.4667187,19.5185156 99.5826562,18.3110156 99.8139844,17.1155469 C100.045312,15.9195313 100.392578,14.7782031 100.855234,13.6904688 C101.318437,12.6027344 101.892656,11.5959375 102.579531,10.670625 C103.265859,9.74476563 104.068125,8.94304688 104.986328,8.26382813 C105.903984,7.58515625 106.941406,7.05304688 108.098594,6.66695313 C109.255781,6.28140625 110.497187,6.08835938 111.824453,6.08835938 C112.950469,6.08835938 114.022891,6.1775 115.041172,6.3546875 C116.059453,6.531875 117.146641,6.79054688 118.303828,7.12960938 L119.252656,2.50140625 C118.034219,2.10054688 116.718984,1.79976563 115.306953,1.5990625 C113.895469,1.39890625 112.642031,1.29828125 111.546641,1.29828125 C109.54125,1.29828125 107.674219,1.57992188 105.946094,2.14320313 C104.218516,2.7059375 102.69875,3.47375 101.387891,4.44554688 C100.076484,5.41734375 98.9460937,6.55539063 97.9972656,7.85859375 C97.0484375,9.16289063 96.2614844,10.5514063 95.6369531,12.0241406 C95.0124219,13.4974219 94.5492187,15.0210156 94.2484375,16.594375 C93.9476562,18.1682813 93.7972656,19.7110156 93.7972656,21.223125 C93.7972656,23.3515625 94.1057031,25.1879688 94.723125,26.7307031 C95.3394531,28.2734375 96.2040625,29.5383594 97.3147656,30.5254688 L97.3147656,30.5254688 Z M245.628359,1.84515625 L240.167266,1.84515625 L239.174688,6.44328125 L244.635781,6.44328125 L245.628359,1.84515625 Z M154.483984,25.2585156 C153.371641,27.0867188 151.250859,28.9214844 148.997734,28.9214844 C148.253984,28.9214844 147.657344,28.6939844 147.224219,28.245 C146.595859,27.5936719 146.303828,26.4933594 146.358516,24.9757813 C146.599141,18.2322656 149.812031,14.35 154.491094,14.35 C155.261094,14.35 156.031641,14.4861719 156.594922,14.6179688 L154.483984,25.2585156 Z M162.561875,10.8833594 L162.379766,10.8314063 C160.690469,10.3496094 157.874609,9.86398438 155.390703,9.86398438 C147.257578,9.86398438 141.121641,16.4226563 140.798984,25.4597656 C140.706563,28.0404688 141.377031,30.1497656 142.736563,31.5596094 C143.865313,32.729375 145.428281,33.3478906 147.255391,33.3478906 C150.549766,33.3478906 152.995391,31.8035156 154.109922,30.454375 C154.317734,31.1532813 154.665547,31.5907813 155.134219,32.0523438 C155.658672,32.5691406 156.878203,33.1898438 158.216953,33.1898438 C159.417344,33.1898438 160.553203,33.0985156 161.290391,32.7829688 L161.386641,32.7414063 L162.390156,28.02625 L162.072969,28.0989844 C161.595547,28.21 161.051953,28.3226563 160.639063,28.3226563 C160.155078,28.3226563 159.819297,28.2176563 159.610938,28.0021875 C159.404766,27.7883594 159.312891,27.4547656 159.329844,26.9817188 C159.336953,26.7700781 159.396563,26.4550781 159.454531,26.1466406 L162.561875,10.8833594 Z M243.841719,10.4157812 L238.380625,10.4157812 L233.705938,32.8392969 L239.167031,32.8392969 L243.841719,10.4157812 Z M229.709375,11.3646094 C229.115469,10.8713281 228.428594,10.4967188 227.649844,10.2424219 C226.871094,9.98757813 226.041484,9.86015625 225.162656,9.86015625 C224.390469,9.86015625 223.654375,9.953125 222.952188,10.1379688 C222.25,10.3233594 221.598672,10.5705469 220.996563,10.8789844 C220.395,11.1874219 219.843203,11.5461719 219.342266,11.9546875 C218.840781,12.36375 218.404922,12.7919531 218.034688,13.2392969 L217.941719,13.2392969 C218.389609,11.8354688 218.6975,10.6935938 218.867578,9.81421875 L220.521328,1.84515625 L215.060781,1.84515625 L208.639375,32.8392969 L214.100469,32.8392969 L216.414297,21.6622656 C216.522578,21.1536719 216.626484,20.7101562 216.727109,20.3317188 C216.827188,19.9538281 216.931641,19.6185938 217.039375,19.3254688 C217.147109,19.0323438 217.259219,18.7698438 217.375156,18.5385156 C217.490547,18.3071875 217.610313,18.0911719 217.733906,17.8904688 C218.381953,16.8415625 219.191875,16.0086719 220.163672,15.39125 C221.135469,14.774375 222.184375,14.4653906 223.310938,14.4653906 C224.23625,14.4653906 224.914922,14.6819531 225.346953,15.1134375 C225.779531,15.5454688 225.995,16.1552344 225.995,16.9416406 C225.995,17.2041406 225.968203,17.5246094 225.914609,17.9019531 C225.859922,18.2803906 225.786641,18.7085938 225.694219,19.1865625 L222.87125,32.8392969 L228.332344,32.8392969 L231.086406,19.6027344 C231.225313,18.90875 231.348359,18.2142188 231.456641,17.5202344 C231.564375,16.82625 231.618516,16.1935156 231.618516,15.6225781 C231.618516,14.6972656 231.448984,13.8796875 231.109922,13.1698438 C230.769766,12.46 230.303281,11.8584375 229.709375,11.3646094 L229.709375,11.3646094 Z M87.4682812,28.6398438 C86.6507031,28.7552344 85.9796875,28.8132031 85.4552344,28.8132031 C84.6835938,28.8132031 84.1438281,28.7016406 83.8353906,28.4774219 C83.5264062,28.2542969 83.3727344,27.8567188 83.3727344,27.2857813 C83.3727344,27.1009375 83.391875,26.8805469 83.4307031,26.62625 C83.4684375,26.3719531 83.5264062,26.075 83.6035156,25.7353906 L85.8254687,14.9280469 L91.6573437,14.9280469 L92.605625,10.4157813 L86.7742969,10.4157813 L88.0698437,4.14476563 L82.60875,4.14476563 L81.2896875,10.4157813 L77.1241406,10.4157813 L76.1753125,14.9280469 L80.364375,14.9280469 L78.0035156,26.3139844 C77.8957812,26.823125 77.8263281,27.2589844 77.7951563,27.6215625 C77.7645312,27.9841406 77.7492187,28.2964063 77.7492187,28.5583594 C77.7492187,29.3146875 77.8684375,29.9933594 78.1079687,30.5949219 C78.3469531,31.1970313 78.7171875,31.7061719 79.2186719,32.1223438 C79.7196094,32.5390625 80.3561719,32.8589844 81.1278125,33.0832031 C81.8989062,33.3063281 82.8171094,33.4184375 83.8813281,33.4184375 C84.6529687,33.4184375 85.474375,33.36375 86.3460937,33.2560156 C87.2172656,33.1482813 88.0239062,32.9940625 88.764375,32.7933594 L89.6667188,28.2346094 C89.0186719,28.3888281 88.2864062,28.5239063 87.4682812,28.6398438 L87.4682812,28.6398438 Z M49.4807031,17.3928125 C49.1870313,17.8483594 48.7008594,18.2530469 48.0227344,18.6079688 C47.3435156,18.9628906 46.4488281,19.2483594 45.338125,19.4638281 C44.2274219,19.6803906 42.8536719,19.788125 41.2190625,19.788125 C41.4810156,18.878125 41.8359375,18.0720313 42.2832813,17.3698438 C42.730625,16.6682031 43.2359375,16.07375 43.7992188,15.588125 C44.3619531,15.1019531 44.9635156,14.7355469 45.6044531,14.4889063 C46.2442969,14.2422656 46.8726563,14.1186719 47.4900781,14.1186719 C48.3076563,14.1186719 48.916875,14.3035156 49.3182813,14.67375 C49.7196875,15.0439844 49.9198438,15.4836719 49.9198438,15.9928125 C49.9198438,16.4713281 49.7732813,16.9383594 49.4807031,17.3928125 L49.4807031,17.3928125 Z M54.8723437,13.470625 C54.5021094,12.7148438 53.9809375,12.070625 53.3099219,11.5379688 C52.6389063,11.0058594 51.8251563,10.5935156 50.8686719,10.3003906 C49.9121875,10.0072656 48.8397656,9.86015625 47.6519531,9.86015625 C46.2946094,9.86015625 45.0373438,10.05375 43.8801563,10.4392969 C42.7229688,10.8248438 41.6773438,11.353125 40.744375,12.0241406 C39.8108594,12.6951563 38.9894531,13.4903125 38.2801563,14.4079688 C37.5703125,15.3261719 36.9758594,16.3209375 36.4978906,17.3928125 C36.0199219,18.4652344 35.6567969,19.5879688 35.4101563,20.7599219 C35.1635156,21.9329688 35.0399219,23.1125781 35.0399219,24.3009375 C35.0399219,25.6429688 35.2329688,26.8690625 35.6185156,27.9803125 C36.0040625,29.0910156 36.5941406,30.0513281 37.3892969,30.86125 C38.1833594,31.6711719 39.1901563,32.3000781 40.4091406,32.7474219 C41.6275781,33.1942188 43.0620313,33.4184375 44.7130469,33.4184375 C46.1015625,33.4184375 47.4091406,33.2986719 48.6357813,33.0596875 C49.861875,32.8201563 50.9534375,32.5084375 51.9099219,32.1223438 L52.9052344,27.3092969 C51.9175781,27.8025781 50.7603906,28.1963281 49.4342188,28.4894531 C48.1069531,28.7825781 46.8420313,28.9291406 45.6389063,28.9291406 C44.8366406,28.9291406 44.1114844,28.84 43.4634375,28.6628125 C42.8159375,28.485625 42.2635938,28.2039844 41.8091406,27.8178906 C41.3535938,27.4328906 41.0063281,26.9352344 40.7673438,26.3254688 C40.5283594,25.71625 40.4091406,25.0025781 40.4091406,24.185 L40.4091406,24.0460938 C40.81,24.0619531 41.1414063,24.0690625 41.4039063,24.0690625 C43.6717969,24.0690625 45.6771875,23.8842188 47.420625,23.5139844 C49.1640625,23.14375 50.6296875,22.6078125 51.8175,21.905625 C53.0053125,21.2039844 53.9038281,20.3552344 54.5135938,19.3599219 C55.1228125,18.3651563 55.4279688,17.2424219 55.4279688,15.9928125 C55.4279688,15.0669531 55.2425781,14.2264063 54.8723437,13.470625 L54.8723437,13.470625 Z" id="Fill-1"></path>
                <path d="M216.678383,49.8295547 C215.674867,49.8295547 214.916352,50.6104922 214.916352,51.5254141 C214.916352,52.4616641 215.674867,53.2426016 216.678383,53.2426016 C217.704867,53.2426016 218.441508,52.4616641 218.441508,51.5254141 C218.441508,50.6104922 217.704867,49.8295547 216.678383,49.8295547 L216.678383,49.8295547 Z M213.064633,65.7140859 L215.942289,65.7140859 L217.682445,54.7601797 L214.804789,54.7601797 L213.064633,65.7140859 Z M212.327445,54.5813516 C211.323383,54.5813516 210.31932,55.2064297 209.649945,56.0759609 L209.873617,54.7601797 L207.040258,54.7601797 L205.299555,65.7140859 L208.177758,65.7140859 L209.360102,58.3739297 C209.851195,57.8385391 210.810961,57.1697109 211.747211,57.1697109 C212.26018,57.1697109 212.527602,57.2140078 212.773148,57.3031484 L213.242367,54.7153359 C213.063539,54.6486172 212.751273,54.5813516 212.327445,54.5813516 L212.327445,54.5813516 Z M239.483617,61.2297109 C239.483617,64.0182266 241.023617,65.8923672 244.057133,65.8923672 C245.016352,65.8923672 245.997992,65.6468203 246.578227,65.3575234 L246.934789,63.0590078 C246.310805,63.3493984 245.619008,63.6392422 244.682211,63.6392422 C243.231898,63.6392422 242.51768,62.8807266 242.51768,61.1405703 C242.51768,58.7086172 243.477445,56.8126016 245.619008,56.8126016 C246.422367,56.8126016 247.135492,57.0581484 247.559867,57.3479922 L247.916977,55.0948672 C247.425883,54.8274453 246.689789,54.5813516 245.485023,54.5813516 C241.625727,54.5813516 239.483617,57.5038516 239.483617,61.2297109 L239.483617,61.2297109 Z M221.498539,59.7351016 C221.87807,57.5705703 223.060414,56.6786172 224.041508,56.6786172 C224.688461,56.6786172 225.001273,56.9908828 225.001273,57.6378359 C225.001273,58.8644766 223.595258,59.6011172 221.498539,59.7351016 L221.498539,59.7351016 Z M224.26518,54.5813516 C220.740023,54.5813516 218.375883,57.6378359 218.375883,61.2969766 C218.375883,64.1522109 219.937211,65.8923672 223.082836,65.8923672 C224.153617,65.8923672 225.112836,65.6468203 225.804086,65.3121328 L226.161195,62.9917422 C225.40268,63.3493984 224.443461,63.6840859 223.394555,63.6840859 C222.078773,63.6840859 221.342133,63.1033047 221.320258,61.4976797 C225.067992,61.2969766 227.744945,60.2256484 227.744945,57.4814297 C227.744945,55.5405703 226.29518,54.5813516 224.26518,54.5813516 L224.26518,54.5813516 Z M181.065883,62.9026016 L179.727133,60.2480703 L183.742289,54.7601797 L180.731195,54.7601797 L178.611508,58.1513516 L177.875414,56.4330703 C177.227914,54.8936172 176.69307,54.5813516 175.376742,54.5813516 C174.863227,54.5813516 174.350805,54.6934609 173.993148,54.8493203 L173.68143,56.8350234 C173.859711,56.8126016 174.01557,56.7907266 174.149555,56.7907266 C174.707367,56.7907266 174.997211,57.0133047 175.287055,57.6378359 L176.403227,60.0030703 L172.119555,65.7140859 L175.108773,65.7140859 L177.563148,62.0325234 L178.410258,63.8393984 C179.125023,65.3121328 179.682836,65.8699453 181.176898,65.8699453 C181.779555,65.8699453 182.136117,65.7583828 182.493227,65.6025234 L182.806039,63.6392422 C182.559945,63.6611172 182.359789,63.6840859 182.180961,63.6840859 C181.623148,63.6840859 181.377602,63.5052578 181.065883,62.9026016 L181.065883,62.9026016 Z M170.934477,59.6011172 L171.292133,57.3479922 L166.852602,57.3479922 L167.343148,54.2915078 L172.585492,54.2915078 L172.964477,51.8152578 L164.755336,51.8152578 L162.546508,65.7140859 L170.756195,65.7140859 L171.157602,63.2378359 L165.93768,63.2378359 L166.494945,59.6011172 L170.934477,59.6011172 Z M237.362289,63.0141641 C237.362289,62.8807266 237.384711,62.7018984 237.406586,62.5017422 L238.076508,58.4411953 C238.143227,58.0173672 238.165648,57.6597109 238.165648,57.3031484 C238.165648,55.7193984 237.518695,54.5813516 235.689398,54.5813516 C233.971117,54.5813516 232.967055,55.4514297 232.253383,56.1875234 L232.49893,54.7601797 L229.621273,54.7601797 L227.88057,65.7140859 L230.758773,65.7140859 L231.963539,58.1956484 C232.432211,57.7269766 233.301742,56.9241641 234.260961,56.9241641 C234.930883,56.9241641 235.198305,57.2807266 235.198305,57.9949453 C235.198305,58.2404922 235.154008,58.5746328 235.109164,58.8868984 L234.417914,63.0808828 C234.37307,63.3269766 234.350102,63.5495547 234.350102,63.7732266 C234.350102,65.0441641 235.042445,65.8699453 236.60432,65.8699453 C237.228305,65.8699453 237.830961,65.7583828 238.209945,65.6025234 L238.522211,63.6392422 C238.321508,63.6611172 238.143227,63.6840859 238.009789,63.6840859 C237.562992,63.6840859 237.362289,63.5276797 237.362289,63.0141641 L237.362289,63.0141641 Z M198.916977,59.7351016 C199.296508,57.5705703 200.478852,56.6786172 201.460492,56.6786172 C202.107445,56.6786172 202.419711,56.9908828 202.419711,57.6378359 C202.419711,58.8644766 201.014242,59.6011172 198.916977,59.7351016 L198.916977,59.7351016 Z M201.683617,54.5813516 C198.159008,54.5813516 195.79432,57.6378359 195.79432,61.2969766 C195.79432,64.1522109 197.355648,65.8923672 200.501273,65.8923672 C201.572055,65.8923672 202.53182,65.6468203 203.22307,65.3121328 L203.58018,62.9917422 C202.821664,63.3493984 201.861898,63.6840859 200.813539,63.6840859 C199.497758,63.6840859 198.761117,63.1033047 198.738695,61.4976797 C202.486977,61.2969766 205.16393,60.2256484 205.16393,57.4814297 C205.16393,55.5405703 203.713617,54.5813516 201.683617,54.5813516 L201.683617,54.5813516 Z M188.541664,63.6392422 C188.139711,63.6392422 187.738305,63.5495547 187.426039,63.4385391 L188.229398,58.5079141 C188.608383,57.7488516 189.545727,56.8798672 190.415805,56.8798672 C191.151352,56.8798672 191.598148,57.4147109 191.598148,58.5746328 C191.598148,61.7869766 190.169711,63.6392422 188.541664,63.6392422 L188.541664,63.6392422 Z M191.575727,54.5813516 C190.058148,54.5813516 189.032211,55.4962734 188.585961,56.0983828 L188.786664,54.7601797 L185.908461,54.7601797 L183.54432,69.7297891 L186.422523,69.7297891 L187.090805,65.6468203 C187.292055,65.7583828 187.894711,65.8923672 188.563539,65.8923672 C191.77643,65.8923672 194.654633,63.1481484 194.654633,58.5303359 C194.654633,56.2099453 193.672445,54.5813516 191.575727,54.5813516 L191.575727,54.5813516 Z M251.287367,59.7351016 C251.666898,57.5705703 252.849242,56.6786172 253.830336,56.6786172 C254.477289,56.6786172 254.789555,56.9908828 254.789555,57.6378359 C254.789555,58.8644766 253.384086,59.6011172 251.287367,59.7351016 L251.287367,59.7351016 Z M257.533773,57.4814297 C257.533773,55.5405703 256.084008,54.5813516 254.054008,54.5813516 C250.528305,54.5813516 248.163617,57.6378359 248.163617,61.2969766 C248.163617,64.1522109 249.726039,65.8923672 252.871664,65.8923672 C253.942445,65.8923672 254.901664,65.6468203 255.592914,65.3121328 L255.950023,62.9917422 C255.191508,63.3493984 254.232289,63.6840859 253.183383,63.6840859 C251.867602,63.6840859 251.130961,63.1033047 251.109086,61.4976797 C254.85682,61.2969766 257.533773,60.2256484 257.533773,57.4814297 L257.533773,57.4814297 Z" id="Fill-4"></path>
            </g>
        </g>
    </g>
</svg>